<?xml version="1.0" standalone="no"?>
<!DOCTYPE svg PUBLIC "-//W3C//DTD SVG 20010904//EN"
 "http://www.w3.org/TR/2001/REC-SVG-20010904/DTD/svg10.dtd">
<svg version="1.0" xmlns="http://www.w3.org/2000/svg"
 width="512.000000pt" height="512.000000pt" viewBox="0 0 512.000000 512.000000"
 preserveAspectRatio="xMidYMid meet">
<metadata>
Created by potrace 1.16, written by Peter Selinger 2001-2019
</metadata>
<g transform="translate(0.000000,512.000000) scale(0.100000,-0.100000)"
fill="#000000" stroke="none">
<path d="M2463 5099 c-61 -24 -132 -89 -163 -148 -85 -168 -14 -375 155 -453
69 -32 199 -32 266 -2 169 78 243 289 159 454 -26 51 -93 115 -148 142 -67 33
-196 36 -269 7z"/>
<path d="M2320 4430 c-41 -32 -127 -60 -185 -60 -41 0 -72 8 -122 32 -120 58
-213 36 -263 -62 -42 -83 -17 -154 84 -241 94 -80 160 -169 230 -306 89 -178
146 -416 146 -610 l0 -61 -103 -4 c-96 -3 -106 -5 -141 -32 -44 -33 -75 -95
-76 -147 0 -43 32 -94 79 -126 31 -21 45 -23 163 -23 l129 0 -5 -52 c-4 -29
-11 -102 -17 -163 -23 -247 -73 -497 -138 -691 -51 -154 -101 -268 -208 -471
-66 -128 -89 -163 -105 -163 -11 0 -33 -13 -49 -29 -39 -40 -40 -91 -2 -121
27 -21 27 -22 11 -48 -8 -15 -45 -75 -81 -135 -73 -120 -105 -202 -114 -299
-9 -106 27 -261 84 -350 29 -47 29 -59 -1 -87 -32 -30 -52 -75 -60 -133 l-6
-48 991 0 c938 0 990 1 985 18 -2 9 -8 36 -11 60 -4 26 -21 61 -41 88 -40 52
-41 57 -14 94 36 51 68 134 81 213 26 155 -24 336 -148 539 l-35 57 36 34 c40
38 42 44 22 91 -10 23 -25 38 -52 48 -37 15 -45 27 -141 215 -171 332 -248
566 -299 903 -15 102 -43 362 -44 408 0 21 2 22 110 22 123 0 150 9 194 60 44
53 34 154 -22 213 -43 46 -74 57 -157 57 l-75 0 0 99 c0 186 48 379 140 566
70 142 134 230 231 316 82 72 99 101 99 165 0 88 -58 154 -147 169 -35 5 -55
1 -123 -29 -114 -51 -170 -50 -276 3 l-79 40 -45 -29 c-61 -39 -123 -60 -176
-60 -45 0 -132 33 -184 70 -34 25 -39 25 -70 0z"/>
</g>
</svg>
