<?xml version="1.0" standalone="no"?>
<!DOCTYPE svg PUBLIC "-//W3C//DTD SVG 20010904//EN"
 "http://www.w3.org/TR/2001/REC-SVG-20010904/DTD/svg10.dtd">
<svg version="1.0" xmlns="http://www.w3.org/2000/svg"
 width="64.000000pt" height="64.000000pt" viewBox="0 0 64.000000 64.000000"
 preserveAspectRatio="xMidYMid meet">
<metadata>
Created by potrace 1.16, written by Peter Selinger 2001-2019
</metadata>
<g transform="translate(0.000000,64.000000) scale(0.100000,-0.100000)"
fill="#000000" stroke="none">
<path d="M310 615 c0 -14 -7 -28 -15 -31 -8 -4 -15 -12 -15 -19 0 -8 -8 -16
-17 -19 -29 -9 -153 -130 -153 -148 0 -10 5 -29 12 -43 9 -19 18 -25 45 -25
19 0 44 7 56 15 15 9 35 12 59 8 l37 -5 -38 -47 c-48 -58 -69 -97 -77 -151 -4
-23 -13 -47 -20 -55 -8 -7 -14 -32 -14 -54 l0 -41 175 0 175 0 0 38 c0 28 -7
45 -24 61 l-24 22 30 112 c31 119 32 172 3 239 -17 43 -61 87 -102 104 -18 8
-40 25 -49 39 -21 33 -44 32 -44 0z"/>
</g>
</svg>
