<?xml version="1.0" standalone="no"?>
<!DOCTYPE svg PUBLIC "-//W3C//DTD SVG 20010904//EN"
 "http://www.w3.org/TR/2001/REC-SVG-20010904/DTD/svg10.dtd">
<svg version="1.0" xmlns="http://www.w3.org/2000/svg"
 width="64.000000pt" height="64.000000pt" viewBox="0 0 64.000000 64.000000"
 preserveAspectRatio="xMidYMid meet">
<metadata>
Created by potrace 1.16, written by Peter Selinger 2001-2019
</metadata>
<g transform="translate(0.000000,64.000000) scale(0.100000,-0.100000)"
fill="#000000" stroke="none">
<path d="M187 633 c-11 -11 -8 -151 4 -158 6 -4 8 -22 4 -44 -5 -28 -2 -41 9
-51 21 -17 20 -41 -4 -120 -11 -36 -20 -75 -20 -87 0 -12 -9 -27 -20 -33 -15
-8 -20 -21 -20 -55 0 -70 24 -80 180 -80 156 0 180 10 180 80 0 34 -5 47 -20
55 -11 6 -20 21 -20 33 0 12 -9 51 -20 87 -24 79 -25 103 -4 121 11 9 14 22 9
47 -4 19 -2 39 5 47 6 8 10 43 8 87 -3 71 -4 73 -30 76 -24 3 -27 0 -30 -35
l-4 -38 -10 35 c-10 34 -11 35 -64 35 -53 0 -54 -1 -64 -35 l-10 -35 -4 38
c-3 31 -7 37 -26 37 -12 0 -26 -3 -29 -7z"/>
</g>
</svg>
