<?xml version="1.0" standalone="no"?>
<!DOCTYPE svg PUBLIC "-//W3C//DTD SVG 20010904//EN"
 "http://www.w3.org/TR/2001/REC-SVG-20010904/DTD/svg10.dtd">
<svg version="1.0" xmlns="http://www.w3.org/2000/svg"
 width="64.000000pt" height="64.000000pt" viewBox="0 0 64.000000 64.000000"
 preserveAspectRatio="xMidYMid meet">
<metadata>
Created by potrace 1.16, written by Peter Selinger 2001-2019
</metadata>
<g transform="translate(0.000000,64.000000) scale(0.100000,-0.100000)"
fill="#000000" stroke="none">
<path d="M283 598 c-61 -87 -81 -156 -51 -186 9 -9 6 -12 -15 -12 -25 0 -27
-3 -27 -40 0 -33 3 -40 20 -40 18 0 20 -7 20 -75 0 -68 -2 -75 -20 -75 -17 0
-20 -7 -20 -40 l0 -40 130 0 130 0 0 40 c0 33 -3 40 -20 40 -18 0 -20 7 -20
75 0 68 2 75 20 75 17 0 20 7 20 40 0 34 -3 40 -20 40 -17 0 -19 3 -10 19 20
39 11 78 -37 150 -26 39 -52 71 -58 71 -7 0 -25 -19 -42 -42z"/>
<path d="M140 40 l0 -40 180 0 180 0 0 40 0 40 -180 0 -180 0 0 -40z"/>
</g>
</svg>
