<?xml version="1.0" standalone="no"?>
<!DOCTYPE svg PUBLIC "-//W3C//DTD SVG 20010904//EN"
 "http://www.w3.org/TR/2001/REC-SVG-20010904/DTD/svg10.dtd">
<svg version="1.0" xmlns="http://www.w3.org/2000/svg"
 width="64.000000pt" height="64.000000pt" viewBox="0 0 64.000000 64.000000"
 preserveAspectRatio="xMidYMid meet">
<metadata>
Created by potrace 1.16, written by Peter Selinger 2001-2019
</metadata>
<g transform="translate(0.000000,64.000000) scale(0.100000,-0.100000)"
fill="#000000" stroke="none">
<path d="M300 629 c0 -5 -4 -7 -10 -4 -6 4 -10 -5 -10 -20 0 -20 4 -26 14 -22
31 12 4 -22 -30 -38 -47 -22 -51 -38 -20 -85 29 -45 33 -75 11 -96 -16 -17
-10 -44 11 -44 8 0 14 -4 14 -8 0 -19 -32 -127 -45 -151 -24 -45 -34 -89 -28
-126 l6 -35 107 0 107 0 6 34 c6 36 -8 90 -41 166 -28 65 -37 120 -19 120 22
0 28 27 12 44 -22 21 -18 51 11 96 28 41 26 66 -3 77 -10 3 -26 13 -35 21 -16
14 -17 16 -1 27 19 14 8 39 -14 30 -13 -4 -14 -3 -3 10 11 13 9 15 -14 15 -14
0 -26 -5 -26 -11z"/>
</g>
</svg>
