<?xml version="1.0" standalone="no"?>
<!DOCTYPE svg PUBLIC "-//W3C//DTD SVG 20010904//EN"
 "http://www.w3.org/TR/2001/REC-SVG-20010904/DTD/svg10.dtd">
<svg version="1.0" xmlns="http://www.w3.org/2000/svg"
 width="64.000000pt" height="64.000000pt" viewBox="0 0 64.000000 64.000000"
 preserveAspectRatio="xMidYMid meet">
<metadata>
Created by potrace 1.16, written by Peter Selinger 2001-2019
</metadata>
<g transform="translate(0.000000,64.000000) scale(0.100000,-0.100000)"
fill="#000000" stroke="none">
<path d="M243 620 c-62 -38 -81 -122 -43 -193 16 -29 20 -56 20 -132 l0 -95
100 0 100 0 0 95 c0 76 4 103 20 132 55 103 -7 213 -120 213 -27 0 -58 -8 -77
-20z"/>
<path d="M180 140 l0 -40 140 0 140 0 0 40 0 40 -140 0 -140 0 0 -40z"/>
<path d="M130 40 l0 -40 190 0 190 0 0 40 0 40 -190 0 -190 0 0 -40z"/>
</g>
</svg>
